<?xml version="1.0" encoding="utf-8"?>
<!-- Generator: Adobe Illustrator 27.0.0, SVG Export Plug-In . SVG Version: 6.00 Build 0)  -->
<svg version="1.1" id="Capa_1" xmlns="http://www.w3.org/2000/svg" xmlns:xlink="http://www.w3.org/1999/xlink" x="0px" y="0px"
	 viewBox="0 0 1041 268.2" style="enable-background:new 0 0 1041 268.2;" xml:space="preserve">
<style type="text/css">
	.st0{fill:#999999;}
	.st1{fill:#039EB3;}
	.st2{fill:url(#SVGID_1_);}
	.st3{fill:#D1D1D1;}
	.st4{fill:url(#SVGID_00000132800086069601008140000015999716083515277463_);}
	.st5{fill-rule:evenodd;clip-rule:evenodd;fill:#3DAA35;}
	.st6{fill:none;stroke:#71706F;stroke-width:1.3893;stroke-linecap:round;stroke-linejoin:round;stroke-miterlimit:10;}
</style>
<g>
	<g>
		<path class="st0" d="M532.2,84.5h25.6v5h-20.1v9.8h17.4v4.7h-17.4v14.4h-5.6V84.5z"/>
		<path class="st0" d="M561.3,101.5c0-9.9,6.8-17.7,17.7-17.7c10.9,0,17.8,7.8,17.8,17.7c0,9.8-6.8,17.6-17.8,17.6
			C568.1,119.1,561.3,111.2,561.3,101.5z M591,101.5c0-7-4.8-12.3-12-12.3c-7.2,0-12,5.4-12,12.3c0,6.9,4.8,12.2,12,12.2
			C586.2,113.7,591,108.4,591,101.5z"/>
		<path class="st0" d="M633.7,118.3h-1.5l-23.4-22.7v22.7h-5.6V84.5h1.5l23.4,22.3V84.5h5.6V118.3z"/>
		<path class="st0" d="M655.2,118.3h-12.6V84.5h12.6c10.9,0,18,6.8,18,16.9C673.1,111.5,666.1,118.3,655.2,118.3z M648.1,89.5v23.9
			h6.7c7.2,0,12.7-4.3,12.7-11.9s-5.5-12-12.7-12H648.1z"/>
		<path class="st0" d="M677.5,101.5c0-9.9,6.8-17.7,17.7-17.7c10.9,0,17.8,7.8,17.8,17.7c0,9.8-6.8,17.6-17.8,17.6
			C684.4,119.1,677.5,111.2,677.5,101.5z M707.2,101.5c0-7-4.8-12.3-12-12.3c-7.2,0-12,5.4-12,12.3c0,6.9,4.8,12.2,12,12.2
			C702.5,113.7,707.2,108.4,707.2,101.5z"/>
	</g>
	<g>
		<g>
			<path class="st1" d="M491.6,102.8L491.6,102.8L491.6,102.8z"/>
			<path class="st1" d="M501.9,95.1c0-5.6-4.6-11.4-10.2-11.4c0,0-64.5-0.4-64.5-0.4c-2.1,0-3.1,1.3-3.1,3.4v14.1v7v4.3
				c0-6.6,3.8-6.3,6.4-6.6c0.1,0,60.9,1.8,60.9,1.8h0c0.1,0,0.2,0,0.3,0C497.3,107.3,501.9,100.7,501.9,95.1z"/>
		</g>
		<linearGradient id="SVGID_1_" gradientUnits="userSpaceOnUse" x1="346.6821" y1="104.8118" x2="424.0375" y2="104.8118">
			<stop  offset="0" style="stop-color:#4AB9BA"/>
			<stop  offset="0.5496" style="stop-color:#48B8B9"/>
			<stop  offset="0.7475" style="stop-color:#3FB3B8"/>
			<stop  offset="0.8881" style="stop-color:#2EAAB6"/>
			<stop  offset="1" style="stop-color:#039EB3"/>
		</linearGradient>
		<path class="st2" d="M415.5,100.2h-68.8l11,17.9h61c2.1,0,5.4-0.8,5.4-2.9V91.5C424,98.4,419.1,100.2,415.5,100.2z"/>
		<g>
			<path class="st3" d="M427.1,83.3c-2.5,0-3.1,1.7-3,3.9v14.1v7v4.3c0-6.6,2.9-6.7,5.6-7c0.1,0,3.3,0,3.3,0l11.5-22.2L427.1,83.3z"
				/>
		</g>
		<g>
			<path class="st1" d="M491.6,143.2L491.6,143.2L491.6,143.2z"/>
			<path class="st1" d="M501.9,136.1c0-5.6-4.6-11.5-10.2-11.5c0,0-64.5-0.5-64.5-0.5c-2.1,0-3.1,1.2-3.1,3.3v14.1v7v4.3
				c0-6.6,3.8-6,6.4-6.3c0.1,0,60.9,2.1,60.9,2.1h0c0.1,0,0.2,0,0.3,0C497.3,148.6,501.9,141.7,501.9,136.1z"/>
		</g>
		
			<linearGradient id="SVGID_00000017504706853550916300000016409885157956379832_" gradientUnits="userSpaceOnUse" x1="368.5243" y1="145.8093" x2="424.0375" y2="145.8093">
			<stop  offset="0" style="stop-color:#4AB9BA"/>
			<stop  offset="0.5496" style="stop-color:#48B8B9"/>
			<stop  offset="0.7475" style="stop-color:#3FB3B8"/>
			<stop  offset="0.8881" style="stop-color:#2EAAB6"/>
			<stop  offset="1" style="stop-color:#039EB3"/>
		</linearGradient>
		<path style="fill:url(#SVGID_00000017504706853550916300000016409885157956379832_);" d="M415.5,137.8h-47l11,21.2l39.7,0.4
			c2.1,0,4.9-1.3,4.9-3.5v-23.7C424,139.1,419.1,137.8,415.5,137.8z"/>
		<g>
			<path class="st3" d="M491.6,148.6C491.6,148.6,491.8,148.6,491.6,148.6C491.6,148.6,491.6,148.6,491.6,148.6z"/>
			<path class="st3" d="M427.1,124.1c-2.1,0-3.1,1.3-3.1,3.4v21.1v4.3c0-6.6,3.8-6.2,6.4-6.5c0.1,0,0.4,0,0.5,0l3.2,0.1l10.4-22.4
				L427.1,124.1z"/>
		</g>
		<path class="st1" d="M492,168.3C492,168.3,492,168.3,492,168.3L492,168.3c-0.1,0-0.1,0-0.2,0h0h-65c-2.1,0-2.8-2.5-2.8-0.3v9.5
			v4.5v7v4.3v1.2l6.9-8.4h60.8c0.1,0,0.1,0,0.2,0l0,0c0,0,0,0,0.1,0c5.6,0,10.2-3.3,10.2-9S497.6,168.3,492,168.3z"/>
	</g>
	<g>
		<path class="st1" d="M540.9,165.1c0.1,4.9,2.8,8.9,10.4,8.9c6.2,0,12-1.8,12-1.8l1.8,10.6c0,0-6.5,2.5-15.2,2.5
			c-14.6,0-23.3-7.5-23.3-24.3c0-13.7,6.4-24.2,21.3-24.2c14.3,0,19.6,8.7,19.6,19.5c0,2.8-0.3,5.8-1,8.7H540.9z M547.7,147.9
			c-5.1,0-6.5,3.7-6.8,8.2h12.9C553.8,151.9,553.3,147.9,547.7,147.9z"/>
		<path class="st1" d="M601.3,154.9c0-5.6-3.1-6.5-6.8-6.5c-3.5,0-6.1,0.8-6.1,0.8v35.1H574v-43.3c0,0,9-4,21.5-4
			c5.4,0,9.8,0.8,13,2.8c3.8-1.5,8.7-2.8,15.1-2.8c12,0,19.7,4.8,19.7,19.6v27.8h-14.5v-29.4c0-5.5-3.3-6.5-6.7-6.5
			c-3,0-5.5,0.9-6.9,1.6c0.3,1.9,0.6,4.1,0.6,6.5v27.8h-14.5V154.9z"/>
		<path class="st1" d="M671.8,185.3c-2.5,0-4.7-0.3-6.4-0.7v17h-14.5v-60.7c0,0,8.4-4,19.7-4c17.2,0,22.9,9.5,22.9,24.3
			C693.6,175.9,687.4,185.3,671.8,185.3z M670.7,148.3c-2.8,0-4.8,0.4-5.4,0.7v24.1c0.6,0.2,2.6,0.8,5.4,0.8c7,0,8.4-5.7,8.4-12.7
			C679.1,154.1,678,148.3,670.7,148.3z"/>
		<path class="st1" d="M724.9,149.2c-0.4-0.1-1.3-0.1-2.4-0.1c-2.9,0-6.1,0.5-7.6,1.1v34h-14.5V141c4.1-1.9,11.4-4,19.7-4
			c1.8,0,3.7,0.1,5.6,0.3L724.9,149.2z"/>
		<path class="st1" d="M743.1,165.1c0.1,4.9,2.8,8.9,10.4,8.9c6.2,0,12-1.8,12-1.8l1.8,10.6c0,0-6.5,2.5-15.2,2.5
			c-14.6,0-23.3-7.5-23.3-24.3c0-13.7,6.4-24.2,21.3-24.2c14.3,0,19.6,8.7,19.6,19.5c0,2.8-0.3,5.8-1,8.7H743.1z M749.9,147.9
			c-5.1,0-6.5,3.7-6.8,8.2H756C756,151.9,755.5,147.9,749.9,147.9z"/>
		<path class="st1" d="M803.8,154.9c0-5.6-3.3-6.5-7-6.5c-3.4,0-6.1,0.8-6.1,0.8v35.1h-14.5v-43.3c0,0,9.1-4,21.4-4
			c13.1,0,20.7,4.4,20.7,19.6v27.8h-14.5V154.9z"/>
		<path class="st1" d="M846.2,136.9c2.6,0,4.7,0.3,6.4,0.7v-16.9h14.5v60.6c0,0-8.4,4-19.7,4c-17.3,0-23-9.5-23-24.3
			C824.4,146.3,830.6,136.9,846.2,136.9z M847.2,173.8c2.8,0,4.8-0.4,5.4-0.7v-24.1c-0.6-0.3-2.6-0.8-5.4-0.8c-7,0-8.4,5.7-8.4,12.7
			C838.9,168.1,840,173.8,847.2,173.8z"/>
		<path class="st1" d="M888.3,165.1c0.1,4.9,2.8,8.9,10.4,8.9c6.2,0,12-1.8,12-1.8l1.8,10.6c0,0-6.5,2.5-15.2,2.5
			c-14.6,0-23.3-7.5-23.3-24.3c0-13.7,6.4-24.2,21.3-24.2c14.3,0,19.6,8.7,19.6,19.5c0,2.8-0.3,5.8-1,8.7H888.3z M895.1,147.9
			c-5.1,0-6.5,3.7-6.8,8.2h12.9C901.2,151.9,900.7,147.9,895.1,147.9z"/>
		<path class="st1" d="M945.9,149.2c-0.4-0.1-1.3-0.1-2.4-0.1c-2.9,0-6.1,0.5-7.6,1.1v34h-14.5V141c4.1-1.9,11.4-4,19.7-4
			c1.8,0,3.7,0.1,5.6,0.3L945.9,149.2z"/>
	</g>
</g>
<g>
	<polygon class="st5" points="94.3,124.2 174.4,124.2 127.4,206.8 117.4,197.3 147.4,144.8 148.1,143.4 148.5,141.9 148.3,140.3 
		147.8,139.4 147.1,138.7 145.5,137.9 143.4,137.5 94.3,137.5 	"/>
	<path class="st5" d="M182,47.9c10.3,0,18.8,8.5,18.8,19c0,10.5-8.5,19.1-18.8,19.1c-10.3,0-18.8-8.6-18.8-19.1
		C163.2,56.4,171.7,47.9,182,47.9"/>
	<polygon class="st5" points="181.5,138.1 137.4,213.9 149.1,219.8 178,170.4 178.9,169.3 180.1,168.7 181.8,168.3 183.6,168.7 
		184.7,169.4 185.5,170.4 214.7,219.8 226.7,213.4 	"/>
	<polygon class="st5" points="188.3,124 269.3,124 269.3,137.2 219.8,137.2 218.2,137.7 216.8,138.4 215.6,139.7 215.1,141.2 
		215.1,142.6 215.5,144.1 246.1,197.3 236.5,206.4 	"/>
	<path class="st5" d="M113.7,109.4L113.7,109.4c0,0.4-0.1,0.6-0.1,0.8c0,1,0.5,1.7,1.6,2.2c1.1,0.5,2.8,0.7,5.2,0.7
		c1.8,0,3.1-0.2,4.1-0.6c1-0.4,1.5-1,1.5-1.6c0-1-2-1.9-6-2.5c-0.5-0.1-0.8-0.1-1-0.2c-0.3,0-0.6-0.1-1.1-0.2
		c-6.3-1.1-10.4-2.2-12.1-3.4c-0.9-0.6-1.5-1.3-2-2.1c-0.4-0.8-0.6-1.7-0.6-2.7c0-2.5,1.4-4.4,4.3-5.7c2.9-1.3,7.1-1.9,12.7-1.9
		c5.5,0,9.6,0.6,12.3,1.8c2.6,1.2,4,3.1,4,5.7v0.2H126v-0.1c0-0.9-0.5-1.5-1.6-2c-1-0.4-2.6-0.7-4.6-0.7c-1.6,0-2.8,0.1-3.7,0.5
		c-0.8,0.3-1.3,0.8-1.3,1.4c0,1.1,2.3,1.9,6.9,2.7c0.9,0.1,1.6,0.2,2.1,0.3c3.2,0.5,5.5,1,6.9,1.4c1.4,0.4,2.6,0.9,3.6,1.4
		c1.1,0.6,2,1.4,2.6,2.3c0.6,1,0.9,2,0.9,3.1c0,2.6-1.6,4.6-4.7,5.9c-3.1,1.4-7.7,2.1-13.6,2.1c-5.9,0-10.1-0.7-12.7-2
		c-2.6-1.3-3.9-3.4-3.9-6.4v-0.4H113.7z M142.3,117.7V92.5H172v5.4h-18.6v4.1h17.2v5.4h-17.2v4.9h19.3v5.5H142.3z M177.4,117.7V92.5
		h14.1l15.2,17v-17h10.8v25.3h-14.7l-14.6-17v17H177.4z M246.3,107.7l-5.3-9.2l-5.7,9.2H246.3z M229.3,117.7h-11.2l17.3-25.3h12.4
		l16.5,25.3h-12.5l-2.5-4.6H232L229.3,117.7z"/>
</g>
<line class="st6" x1="307.5" y1="48.2" x2="307.5" y2="220.3"/>
</svg>
